<svg
  xmlns="http://www.w3.org/2000/svg"
  xmlns:xlink="http://www.w3.org/1999/xlink"
  version="1.1"
  x="0px"
  y="0px"
  viewBox="0 0 50 62.5"
  enable-background="new 0 0 50 62.5"
  xml:space="preserve"
>
  <!-- White base layer for filling -->
  <g>
    <path
      d="M10.1,5.2V4.5c0-1.2-1-2.2-2.2-2.2c-1.2,0-2.2,1-2.2,2.2v42.3c0,1.2,1,2.2,2.2,2.2s2.2-1,2.2-2.2V28.1   c11.4,6,22.8-10.5,34.1-1.4V3.8C32.9-5.3,21.5,11.2,10.1,5.2z M10.1,26.2v-6.1c2.6,1.4,5.3,1.6,7.9,1.1v-6.8   c-2.6,0.4-5.3,0.2-7.9-1.2V7.2c2.6,1.4,5.3,1.6,7.9,1.1v6.1c2.7-0.4,5.4-1.5,8.1-2.6v6.8c-2.7,1.1-5.4,2.1-8.1,2.6v6.1   C15.4,27.7,12.7,27.6,10.1,26.2z M26.1,18.6c2.7-1.1,5.4-2.1,8.1-2.6V9.3c-2.7,0.4-5.4,1.5-8.1,2.6V5.7c2.7-1.1,5.4-2.1,8.1-2.6   v6.1c2.7-0.4,5.4-0.2,8.1,1.3v6.8c-2.7-1.5-5.4-1.7-8.1-1.3v6.1c-2.7,0.4-5.4,1.5-8.1,2.6V18.6z"
      fill="#FFFFFF"
    />
  </g>

  <!-- Black outline path -->
  <g>
    <path
      d="M10.1,5.2V4.5c0-1.2-1-2.2-2.2-2.2c-1.2,0-2.2,1-2.2,2.2v42.3c0,1.2,1,2.2,2.2,2.2s2.2-1,2.2-2.2V28.1   c11.4,6,22.8-10.5,34.1-1.4V3.8C32.9-5.3,21.5,11.2,10.1,5.2z M10.1,26.2v-6.1c2.6,1.4,5.3,1.6,7.9,1.1v-6.8   c-2.6,0.4-5.3,0.2-7.9-1.2V7.2c2.6,1.4,5.3,1.6,7.9,1.1v6.1c2.7-0.4,5.4-1.5,8.1-2.6v6.8c-2.7,1.1-5.4,2.1-8.1,2.6v6.1   C15.4,27.7,12.7,27.6,10.1,26.2z M26.1,18.6c2.7-1.1,5.4-2.1,8.1-2.6V9.3c-2.7,0.4-5.4,1.5-8.1,2.6V5.7c2.7-1.1,5.4-2.1,8.1-2.6   v6.1c2.7-0.4,5.4-0.2,8.1,1.3v6.8c-2.7-1.5-5.4-1.7-8.1-1.3v6.1c-2.7,0.4-5.4,1.5-8.1,2.6V18.6z"
      fill="none"
      stroke="#000000"
      stroke-width="1"
    />
  </g>
</svg>
